# File created by Blade
# Date/Time:  Fri Jan 16 17:25:32 2015
#---------------------------------------------------------
:version 1.10
:name HOM
:units
  mass 1.0
  length 1.000000
  angle deg
:documentation
     Acclaim Skeleton File
:root
   axis xyz
   order TX TY TZ RX RY RZ
   position 0.000000 0.000000 0.000000
   orientation 0 0 0
:bonedata
   begin
      id 1
      name Spine_dum
      direction 0.000000 1.000000 0.000000
      length 7.170412
      axis 0.0 0.0 0.0 xyz
   end
   begin
      id 2
      name LeftUpLeg_dum
      direction 1.000000 0.000000 0.000000
      length 4.318350
      axis 0.0 0.0 0.0 xyz
   end
   begin
      id 3
      name RightUpLeg_dum
      direction -1.000000 0.000000 0.000000
      length 4.318350
      axis 0.0 0.0 0.0 xyz
   end
   begin
      id 4
      name Spine
      direction 0.000000 1.000000 0.000000
      length 0.000000
      axis 0.0 0.0 0.0 xyz
      dof rx ry rz
   end
   begin
      id 5
      name Spine_dum1
      direction 0.000000 1.000000 0.000000
      length 14.276153
      axis 0.0 0.0 0.0 xyz
   end
   begin
      id 6
      name Spine_dum2
      direction 0.000000 1.000000 0.000000
      length 10.718243
      axis 0.0 0.0 0.0 xyz
   end
   begin
      id 7
      name Spine_dum3
      direction 0.000000 1.000000 0.000000
      length 10.718243
      axis 0.0 0.0 0.0 xyz
   end
   begin
      id 8
      name Head
      direction 0.000000 1.000000 0.000000
      length 4.527550
      axis 0.0 0.0 0.0 xyz
      dof rx ry rz
   end
   begin
      id 9
      name LeftShoulder
      direction 1.000000 0.000000 0.000000
      length 7.058872
      axis 0.0 0.0 -90.0 xyz
      dof rx ry rz
   end
   begin
      id 10
      name LeftArm
      direction 1.000000 0.000000 0.000000
      length 10.955525
      axis 0.0 0.0 -90.0 xyz
      dof rx ry rz
   end
   begin
      id 11
      name LeftForeArm
      direction 1.000000 0.000000 0.000000
      length 8.193716
      axis 0.0 0.0 -90.0 xyz
      dof ry rz rx
   end
   begin
      id 12
      name LeftHand
      direction 0.000000 0.000000 0.000000
      length 0.000000
      axis 0.0 0.0 -90.0 xyz
      dof rx ry rz
   end
   begin
      id 13
      name LeftHand_dum1
      direction 0.000000 0.000000 0.000000
      length 0.000000
      axis 0.0 0.0 -90.0 xyz
   end
   begin
      id 14
      name LeftHand_dum2
      direction 1.000000 0.000000 0.000000
      length 3.937000
      axis 0.0 0.0 -90.0 xyz
   end
   begin
      id 15
      name LeftHandThumb1
      direction 0.000000 0.000000 1.000000
      length 3.937000
      axis 0.0 0.0 -90.0 xyz
      dof rx rz ry
   end
   begin
      id 16
      name RightShoulder
      direction -1.000000 0.000000 0.000000
      length 7.058872
      axis 0.0 0.0 90.0 xyz
      dof rx ry rz
   end
   begin
      id 17
      name RightArm
      direction -1.000000 0.000000 0.000000
      length 10.955525
      axis 0.0 0.0 90.0 xyz
      dof rx ry rz
   end
   begin
      id 18
      name RightForeArm
      direction -1.000000 0.000000 0.000000
      length 8.193716
      axis 0.0 0.0 90.0 xyz
      dof ry rz rx
   end
   begin
      id 19
      name RightHand
      direction 0.000000 0.000000 0.000000
      length 0.000000
      axis 0.0 0.0 90.0 xyz
      dof rx ry rz
   end
   begin
      id 20
      name RightHand_dum1
      direction 0.000000 0.000000 0.000000
      length 0.000000
      axis 0.0 0.0 90.0 xyz
   end
   begin
      id 21
      name RightHand_dum2
      direction -1.000000 0.000000 0.000000
      length 3.937000
      axis 0.0 0.0 90.0 xyz
   end
   begin
      id 22
      name RightHandThumb1
      direction 0.000000 0.000000 1.000000
      length 3.937000
      axis 0.0 0.0 90.0 xyz
      dof rx rz ry
   end
   begin
      id 23
      name LeftUpLeg
      direction 0.000000 -1.000000 0.000000
      length 17.323638
      axis 0.0 0.0 0.0 xyz
      dof rx ry rz
   end
   begin
      id 24
      name LeftLeg
      direction 0.000000 -1.000000 0.000000
      length 16.270368
      axis 0.0 0.0 0.0 xyz
      dof rx ry rz
   end
   begin
      id 25
      name LeftFoot
      direction 0.000000 -0.258819 0.965926
      length 4.922846
      axis 15.0 0.0 0.0 xyz
      dof rx ry rz
   end
   begin
      id 26
      name LeftToeBase
      direction 0.000000 0.000000 1.000000
      length 2.952750
      axis 0.0 0.0 0.0 xyz
      dof rx ry rz
   end
   begin
      id 27
      name RightUpLeg
      direction 0.000000 -1.000000 0.000000
      length 17.323638
      axis 0.0 0.0 0.0 xyz
      dof rx ry rz
   end
   begin
      id 28
      name RightLeg
      direction 0.000000 -1.000000 0.000000
      length 16.270368
      axis 0.0 0.0 0.0 xyz
      dof rx ry rz
   end
   begin
      id 29
      name RightFoot
      direction 0.000000 -0.258819 0.965926
      length 4.922846
      axis 15.0 0.0 0.0 xyz
      dof rx ry rz
   end
   begin
      id 30
      name RightToeBase
      direction 0.000000 0.000000 1.000000
      length 2.952750
      axis 0.0 0.0 0.0 xyz
      dof rx ry rz
   end
:hierarchy
   begin
      root Spine_dum LeftUpLeg_dum RightUpLeg_dum
      Spine_dum Spine
      LeftUpLeg_dum LeftUpLeg
      RightUpLeg_dum RightUpLeg
      Spine Spine_dum1 Spine_dum2 Spine_dum3
      Spine_dum1 Head
      Spine_dum2 LeftShoulder
      Spine_dum3 RightShoulder
      LeftShoulder LeftArm
      LeftArm LeftForeArm
      LeftForeArm LeftHand
      LeftHand LeftHand_dum1 LeftHand_dum2
      LeftHand_dum1 LeftHandThumb1
      RightShoulder RightArm
      RightArm RightForeArm
      RightForeArm RightHand
      RightHand RightHand_dum1 RightHand_dum2
      RightHand_dum1 RightHandThumb1
      LeftUpLeg LeftLeg
      LeftLeg LeftFoot
      LeftFoot LeftToeBase
      RightUpLeg RightLeg
      RightLeg RightFoot
      RightFoot RightToeBase
   end

# File created by Blade
# Date/Time:  Fri Jan 16 17:25:22 2015
# Frame Rate: 120.000 fps
#------------------------------------------------------
:FULLY-SPECIFIED
:DEGREES
859
root -5.718258 35.253359 -10.844378 -3.388481 -10.185085 -6.173081
Spine 3.884609 2.069987 9.365794
Head 4.399905 6.267304 -4.282254
LeftShoulder -18.020864 16.036381 -15.687253
LeftArm 26.464623 20.785319 -65.695158
LeftForeArm 12.315646 0.000000 15.402189
LeftHand 0.581369 -0.000000 -6.302880
LeftHandThumb1 -26.253704 0.000000 33.147579
RightShoulder -0.688465 -4.156102 2.418512
RightArm 11.125739 -37.389099 65.893905
RightForeArm -26.811792 -0.000000 23.263979
RightHand 1.867142 0.000000 8.037458
RightHandThumb1 -24.326973 -0.000000 -32.862282
LeftUpLeg 13.150176 17.555798 8.503423
LeftLeg -8.829580 -0.000000 0.000000
LeftFoot -14.838487 29.631343 -7.350024
LeftToeBase 23.193991 -0.000000 -0.000000
RightUpLeg 8.182303 -3.973241 2.898740
RightLeg -4.028155 -0.000000 0.000000
RightFoot -3.172507 -22.200379 5.280207
RightToeBase 13.787103 -0.000000 -0.000000
860
root -5.719062 35.253453 -10.843581 -3.388353 -10.175492 -6.174503
Spine 3.877565 2.076216 9.368575
Head 4.385566 6.266082 -4.304856
LeftShoulder -18.019643 16.038372 -15.693329
LeftArm 26.472285 20.809642 -65.666059
LeftForeArm 12.263884 -0.000000 15.397975
LeftHand 0.613524 -0.000000 -6.313841
LeftHandThumb1 -26.253704 0.000000 33.147579
RightShoulder -0.686043 -4.173381 2.409350
RightArm 11.143745 -37.376647 65.898866
RightForeArm -26.802752 -0.000000 23.251122
RightHand 1.890304 -0.000000 7.992163
RightHandThumb1 -24.326973 -0.000000 -32.862282
LeftUpLeg 13.154442 17.567342 8.506514
LeftLeg -8.841213 -0.000000 0.000000
LeftFoot -14.809187 29.609042 -7.363316
LeftToeBase 23.096624 -0.000000 -0.000000
RightUpLeg 8.180681 -3.973512 2.899950
RightLeg -4.017060 -0.000000 0.000000
RightFoot -3.184380 -22.199745 5.292322
RightToeBase 13.759869 -0.000000 -0.000000
861
root -5.719510 35.253451 -10.842844 -3.386506 -10.165372 -6.176065
Spine 3.869745 2.074980 9.372842
Head 4.358862 6.291713 -4.322546
LeftShoulder -18.020218 16.040490 -15.699589
LeftArm 26.468809 20.818089 -65.659323
LeftForeArm 12.270745 -0.000000 15.398536
LeftHand 0.602672 0.000000 -6.315824
LeftHandThumb1 -26.253704 0.000000 33.147579
RightShoulder -0.677175 -4.148394 2.400975
RightArm 11.107527 -37.380143 65.927124
RightForeArm -26.805334 0.000000 23.255572
RightHand 1.919521 -0.000000 7.993271
RightHandThumb1 -24.326973 -0.000000 -32.862282
LeftUpLeg 13.146473 17.534506 8.504156
LeftLeg -8.830060 -0.000000 0.000000
LeftFoot -14.820736 29.629087 -7.356196
LeftToeBase 23.123020 -0.000000 -0.000000
RightUpLeg 8.180156 -3.986479 2.900423
RightLeg -4.014478 -0.000000 0.000000
RightFoot -3.191547 -22.195099 5.286539
RightToeBase 13.828747 -0.000000 -0.000000
862
root -5.720171 35.253527 -10.842225 -3.386239 -10.156793 -6.175190
Spine 3.863307 2.077648 9.373381
Head 4.341432 6.304639 -4.337834
LeftShoulder -18.026932 16.035704 -15.705208
LeftArm 26.464424 20.808229 -65.658750
LeftForeArm 12.323883 -0.000000 15.390003
LeftHand 0.582997 0.000000 -6.189605
LeftHandThumb1 -26.253704 0.000000 33.147579
RightShoulder -0.673644 -4.150890 2.397492
RightArm 11.106841 -37.370763 65.937084
RightForeArm -26.812582 -0.000000 23.253344
RightHand 1.924242 -0.000000 7.975297
RightHandThumb1 -24.326973 -0.000000 -32.862282
LeftUpLeg 13.152202 17.542543 8.504696
LeftLeg -8.846575 -0.000000 0.000000
LeftFoot -14.820488 29.609744 -7.373767
LeftToeBase 23.108855 -0.000000 -0.000000
RightUpLeg 8.176405 -3.996420 2.899645
RightLeg -4.003462 -0.000000 0.000000
RightFoot -3.192125 -22.196944 5.280901
RightToeBase 13.790266 -0.000000 -0.000000
863
root -5.720758 35.253688 -10.841829 -3.383037 -10.145775 -6.175788
Spine 3.854337 2.077709 9.374671
Head 4.327488 6.315910 -4.365058
LeftShoulder -18.023608 16.028206 -15.706195
LeftArm 26.457475 20.846979 -65.639353
LeftForeArm 12.240728 -0.000000 15.386534
LeftHand 0.595700 -0.000000 -6.289234
LeftHandThumb1 -26.253704 0.000000 33.147579
RightShoulder -0.665815 -4.145049 2.395162
RightArm 11.092154 -37.356197 65.953830
RightForeArm -26.802458 0.000000 23.248120
RightHand 1.951844 -0.000000 7.973159
RightHandThumb1 -24.326973 -0.000000 -32.862282
LeftUpLeg 13.146501 17.523520 8.501111
LeftLeg -8.844376 -0.000000 0.000000
LeftFoot -14.822371 29.638247 -7.339223
LeftToeBase 23.162607 -0.000000 -0.000000
RightUpLeg 8.174070 -3.999489 2.902934
RightLeg -4.002400 -0.000000 0.000000
RightFoot -3.191722 -22.206238 5.272649
RightToeBase 13.775857 -0.000000 -0.000000
864
root -5.720765 35.253522 -10.841584 -3.379026 -10.137267 -6.175772
Spine 3.844589 2.080297 9.382921
Head 4.312111 6.339296 -4.395582
LeftShoulder -18.021818 16.022445 -15.716154
LeftArm 26.448842 20.848957 -65.630217
LeftForeArm 12.297540 -0.000000 15.387446
LeftHand 0.567621 -0.000000 -6.186593
LeftHandThumb1 -26.253704 0.000000 33.147579
RightShoulder -0.659742 -4.107238 2.389899
RightArm 11.030946 -37.334898 65.997785
RightForeArm -26.845415 -0.000000 23.256712
RightHand 1.999552 -0.000000 7.994095
RightHandThumb1 -24.326973 -0.000000 -32.862282
LeftUpLeg 13.133093 17.515269 8.499193
LeftLeg -8.826435 -0.000000 0.000000
LeftFoot -14.825889 29.632333 -7.341546
LeftToeBase 23.130707 -0.000000 -0.000000
RightUpLeg 8.170923 -3.992401 2.904120
RightLeg -4.001759 -0.000000 0.000000
RightFoot -3.201851 -22.215726 5.285378
RightToeBase 13.769675 -0.000000 -0.000000
